<svg xmlns="http://www.w3.org/2000/svg" width="224" height="64" viewBox="0 0 224 64"><path fill="#383838" d="M24 11c-.6.3-1.2.4-1.9.5.7-.4 1.2-1 1.4-1.8-.6.4-1.3.6-2.1.8-.6-.6-1.5-1-2.4-1-1.8 0-3.3 1.5-3.3 3.3 0 .3 0 .5.1.7-2.7-.1-5.1-1.4-6.8-3.4-.3.5-.4 1-.4 1.7 0 1.1.6 2.1 1.5 2.7-.5 0-1-.2-1.5-.4 0 1.6 1.1 2.9 2.6 3.2-.4.3-1 .3-1.5 0 .4 1.3 1.6 2.3 3.1 2.3-1.1.9-2.5 1.4-4.1 1.4h-.8c1.5.9 3.2 1.5 5 1.5 6 0 9.3-5 9.3-9.3v-.4c.8-.5 1.4-1.1 1.8-1.8zM78 16v8h3v-8h2l1-3h-3v-1.3c0-.3.2-.7.7-.7H84V8h-3.3C79 8 78 9.3 78 10.8v2.3h-2v3h2V16zM112 24c-4.4 0-8-3.6-8-8s3.6-8 8-8 8 3.6 8 8-3.6 8-8 8zm6.7-6.9c-.2-.1-2.1-.6-4.3-.3.9 2.5 1.1 3.7 1.3 4.9 1.7-1.1 2.7-2.7 3-4.6zm-4 5.2c-.2-1.2-.5-2.7-1.5-5.2-3.9 1.3-5.2 4-5.4 4.3 1.6 1.3 4.2 1.8 6.9.9zm-7.8-1.7c1.6-3.1 5.8-4.6 5.9-4.6l-.6-1.2c-3.4 1-6.7 1-7 1-.1 1.9.6 3.6 1.7 4.8zm-1.6-6c.3 0 3.1 0 6.3-.8-1.1-2-2.3-3.7-2.5-4-1.9.9-3.3 2.7-3.8 4.8zm5.1-5.2c.2.3 1.4 1.9 2.5 4 2.4-.9 3.5-2.3 3.6-2.5-1.2-1.1-3.5-2-6.1-1.5zm6.9 2.3c-.1.2-1.3 1.7-3.8 2.7.2.3.4.9.6 1.4 2.3-.3 4 0 4.8.2 0-1.8-.7-3.2-1.6-4.3zM170 20c-1.1 0-2 .9-2 2s.9 2 2 2 2-.9 2-2c.1-1-.9-2-2-2zm-2-6.6v3.1c4.2 0 7.5 3.6 7.5 7.5h3.1c0-5.8-4.8-10.6-10.6-10.6zm0-5.4v3.1c7.1 0 12.9 5.8 12.9 12.9h3.1c0-8.8-7.2-16-16-16zM50.8 17.1c-.6 0-1.1.7-1.1 1.6 0 .9.5 1.6 1.1 1.6.6 0 1.1-.7 1.1-1.6 0-.9-.5-1.6-1.1-1.6zm3.9-4c.1-.3.1-2.1-.6-3.8 0 0-1.6.2-4 1.8-.5-.1-1.3-.2-2.2-.2s-1.7.1-2.2.2c-2.4-1.6-4-1.8-4-1.8-.7 1.7-.7 3.5-.6 3.8-.6.8-1.1 1.9-1.1 3.3 0 6.2 5.2 6.3 6.5 6.3h3c1.3 0 6.5-.1 6.5-6.3 0-1.4-.5-2.5-1.3-3.3zM48 22c-3.3 0-5.9-.4-5.9-3.6 0-.8.3-1.5.9-2.1 1.1-1 2.9-.5 4.9-.5 2.1 0 3.9-.5 4.9.5.6.6.9 1.3.9 2.1.2 3.2-2.4 3.6-5.7 3.6zm-2.8-4.9c-.6 0-1.1.7-1.1 1.6 0 .9.5 1.6 1.1 1.6.6 0 1.1-.7 1.1-1.6.1-.9-.4-1.6-1.1-1.6zM143.1 11.8c-.2-1.7-1.4-3-2.5-3s-2 1.3-1.8 2.9c.2 1.7 1.4 3 2.5 3.1 1.1 0 1.9-1.4 1.8-3zm-1.9 6.2c-1.8 0-3.4 1.1-3.4 2.6s1.3 2.6 3 2.6c2.5 0 3.4-1.1 3.4-2.6 0-.2 0-.3-.1-.5-.2-.8-.9-1.2-1.8-1.9-.3-.1-.7-.2-1.1-.2zm2-9.2c1 .4 1.5 1.6 1.5 2.9 0 1-.6 1.9-1.3 2.6-.7.6-.9.9-.9 1.4 0 .5.8 1.2 1.2 1.5 1.2 1 1.6 1.8 1.6 3.2 0 1.8-1.6 3.6-4.5 3.6-2.6 0-4.7-1.1-4.7-2.9 0-1.8 2-3.6 4.5-3.6h.8c-.3-.4-.6-.8-.6-1.4 0-.3.1-.6.2-1h-.4c-2.1 0-3.5-1.6-3.5-3.6 0-1.9 1.9-3.6 4-3.6h4.6l-1 .8h-1.5v.1zM151 12h-2v2h-1v-2h-2v-1h2V9h1v2h2v1zM206.9 18.6c-.4 2.2-.9 4.3-2.5 5.4-.5-3.3.7-5.8 1.2-8.5-.9-1.5.1-4.6 2-3.9 2.4.9-2.1 5.7.9 6.3 3.1.6 4.4-5.4 2.5-7.4-2.8-2.8-8.1-.1-7.5 4 .2 1 1.2 1.3.4 2.7-1.8-.4-2.3-1.8-2.2-3.7.1-3.1 2.8-5.2 5.4-5.5 3.4-.4 6.5 1.2 7 4.4.5 3.6-1.5 7.4-5.1 7.2-.9-.1-1.3-.6-2.1-1z"/><path fill="#fff" d="M24 43c-.6.3-1.2.4-1.9.5.7-.4 1.2-1 1.4-1.8-.6.4-1.3.6-2.1.8-.6-.6-1.5-1-2.4-1-1.8 0-3.3 1.5-3.3 3.3 0 .3 0 .5.1.7-2.7-.1-5.1-1.4-6.8-3.4-.3.5-.4 1-.4 1.7 0 1.1.6 2.1 1.5 2.7-.5 0-1-.2-1.5-.4 0 1.6 1.1 2.9 2.6 3.2-.4.3-1 .3-1.5 0 .4 1.3 1.6 2.3 3.1 2.3-1.1.9-2.5 1.4-4.1 1.4h-.8c1.5.9 3.2 1.5 5 1.5 6 0 9.3-5 9.3-9.3v-.4c.8-.5 1.4-1.1 1.8-1.8zM78 48v8h3v-8h2l1-3h-3v-1.3c0-.3.2-.7.7-.7H84v-3h-3.3C79 40 78 41.3 78 42.8v2.3h-2v3l2-.1zM112 56c-4.4 0-8-3.6-8-8s3.6-8 8-8 8 3.6 8 8-3.6 8-8 8zm6.7-6.9c-.2-.1-2.1-.6-4.3-.3.9 2.5 1.1 3.7 1.3 4.9 1.7-1.1 2.7-2.7 3-4.6zm-4 5.2c-.2-1.2-.5-2.7-1.5-5.2-3.9 1.3-5.2 4-5.4 4.3 1.6 1.3 4.2 1.8 6.9.9zm-7.8-1.7c1.6-3.1 5.8-4.6 5.9-4.6l-.6-1.2c-3.4 1-6.7 1-7 1-.1 1.9.6 3.6 1.7 4.8zm-1.6-6c.3 0 3.1 0 6.3-.8-1.1-2-2.3-3.7-2.5-4-1.9.9-3.3 2.7-3.8 4.8zm5.1-5.2c.2.3 1.4 1.9 2.5 4 2.4-.9 3.5-2.3 3.6-2.5-1.2-1.1-3.5-2-6.1-1.5zm6.9 2.3c-.1.2-1.3 1.7-3.8 2.7.2.3.4.9.6 1.4 2.3-.3 4 0 4.8.2 0-1.8-.7-3.2-1.6-4.3zM170 52c-1.1 0-2 .9-2 2s.9 2 2 2 2-.9 2-2c.1-1-.9-2-2-2zm-2-6.6v3.1c4.2 0 7.5 3.6 7.5 7.5h3.1c0-5.8-4.8-10.6-10.6-10.6zm0-5.4v3.1c7.1 0 12.9 5.8 12.9 12.9h3.1c0-8.8-7.2-16-16-16zM50.8 49.1c-.6 0-1.1.7-1.1 1.6 0 .9.5 1.6 1.1 1.6.6 0 1.1-.7 1.1-1.6 0-.9-.5-1.6-1.1-1.6zm3.9-4c.1-.3.1-2.1-.6-3.8 0 0-1.6.2-4 1.8-.5-.1-1.3-.2-2.2-.2s-1.7.1-2.2.2c-2.4-1.6-4-1.8-4-1.8-.7 1.7-.7 3.5-.6 3.8-.6.8-1.1 1.9-1.1 3.3 0 6.2 5.2 6.3 6.5 6.3h3c1.3 0 6.5-.1 6.5-6.3 0-1.4-.5-2.5-1.3-3.3zM48 54c-3.3 0-5.9-.4-5.9-3.6 0-.8.3-1.5.9-2.1 1.1-1 2.9-.5 4.9-.5 2.1 0 3.9-.5 4.9.5.6.6.9 1.3.9 2.1.2 3.2-2.4 3.6-5.7 3.6zm-2.8-4.9c-.6 0-1.1.7-1.1 1.6 0 .9.5 1.6 1.1 1.6.6 0 1.1-.7 1.1-1.6.1-.9-.4-1.6-1.1-1.6zM143.1 43.8c-.2-1.7-1.4-3-2.5-3s-2 1.3-1.8 2.9c.2 1.7 1.4 3 2.5 3.1 1.1 0 1.9-1.4 1.8-3zm-1.9 6.2c-1.8 0-3.4 1.1-3.4 2.6 0 1.4 1.3 2.6 3 2.6 2.5 0 3.4-1.1 3.4-2.6 0-.2 0-.3-.1-.5-.2-.8-.9-1.2-1.8-1.9-.3-.1-.7-.2-1.1-.2zm2-9.2c1 .4 1.5 1.6 1.5 2.9 0 1-.6 1.9-1.3 2.6-.7.6-.9.9-.9 1.4 0 .5.8 1.2 1.2 1.5 1.2 1 1.6 1.8 1.6 3.2 0 1.8-1.6 3.6-4.5 3.6-2.6 0-4.7-1.1-4.7-2.9 0-1.8 2-3.6 4.5-3.6h.8c-.3-.4-.6-.8-.6-1.4 0-.3.1-.6.2-1h-.4c-2.1 0-3.5-1.6-3.5-3.6 0-1.9 1.9-3.6 4-3.6h4.6l-1 .8h-1.5v.1zM151 44h-2v2h-1v-2h-2v-1h2v-2h1v2h2v1zM206.9 50.6c-.4 2.2-.9 4.3-2.5 5.4-.5-3.3.7-5.8 1.2-8.5-.9-1.5.1-4.6 2-3.9 2.4.9-2.1 5.7.9 6.3 3.1.6 4.4-5.4 2.5-7.4-2.8-2.8-8.1-.1-7.5 4 .2 1 1.2 1.3.4 2.7-1.8-.4-2.3-1.8-2.2-3.7.1-3.1 2.8-5.2 5.4-5.5 3.4-.4 6.5 1.2 7 4.4.5 3.6-1.5 7.4-5.1 7.2-.9-.1-1.3-.6-2.1-1z"/></svg>